<?xml version="1.0" encoding="utf-8"?>
<!-- Generator: Adobe Illustrator 22.1.0, SVG Export Plug-In . SVG Version: 6.00 Build 0)  -->
<svg version="1.1" id="body" xmlns="http://www.w3.org/2000/svg" xmlns:xlink="http://www.w3.org/1999/xlink" x="0px" y="0px"
	 viewBox="0 0 512 512" style="enable-background:new 0 0 512 512;" xml:space="preserve">
<style type="text/css">
	.st0{fill:#F1592B;}
	.st1{fill:#4555A5;}
</style>
<path class="st0" d="M398.8,73.2l-62.8,62.8c0,0-0.1,0-0.1,0V80.3c0-9-10.8-13.4-17.2-7.1L173.1,218.9c-6.3,6.3-1.8,17.1,7.1,17.1
	h135.9c11,0,19.9,8.9,19.9,19.9c0,0,0,0-0.1,0.1L156,256c-11,0-20-9-20-20v0c0-5.2,2.1-10.2,5.7-13.8L290.6,73.1
	c6.3-6.3,1.8-17.1-7.1-17.1h-59.3c-5.3,0-10.4,2.1-14.1,5.9L101.9,170.1c-3.8,3.8-5.9,8.8-5.9,14.1V366c0,5.5,4.5,10,10,10l20,0
	c5.5,0,10-4.5,10-10v-10l-0.2-29.8c-0.1-5.6,4.4-10.3,10-10.3h20c5.4,0,9.9,4.3,10,9.8l0.2,30.2L176,366c0,5.5,4.5,9.9,10,9.9l20,0
	c5.5,0,10-4.5,10-10v-40c0-5.5,4.5-10,10-10h60c5.5,0,10,4.5,10,10v40c0,5.5,4.5,10,10,10h20.1c5.4,0,9.9-4.4,9.9-9.9l0-10.1v-30
	c0-5.5,4.5-10,10-10h20c5.5,0,10,4.5,10,10v30v10c0,5.5,4.5,10,10,10h20c5.5,0,10-4.5,10-10V80.3C416,71.3,405.2,66.8,398.8,73.2z
	 M296,189c-7.2,0-13-5.8-13-13s5.8-13,13-13s13,5.8,13,13S303.2,189,296,189z M256,68c4.4,0,8,3.6,8,8c0,4.4-3.6,8-8,8s-8-3.6-8-8
	C248,71.6,251.6,68,256,68z M236,88c4.4,0,8,3.6,8,8c0,4.4-3.6,8-8,8s-8-3.6-8-8C228,91.6,231.6,88,236,88z M216,108
	c4.4,0,8,3.6,8,8c0,4.4-3.6,8-8,8s-8-3.6-8-8C208,111.6,211.6,108,216,108z M196,128c4.4,0,8,3.6,8,8c0,4.4-3.6,8-8,8s-8-3.6-8-8
	C188,131.6,191.6,128,196,128z M175.5,148c4.4,0,8,3.6,8,8c0,4.4-3.6,8-8,8s-8-3.6-8-8C167.5,151.6,171.1,148,175.5,148z M156,168
	c4.4,0,8,3.6,8,8c0,4.4-3.6,8-8,8s-8-3.6-8-8C148,171.6,151.6,168,156,168z M136,188c4.4,0,8,3.6,8,8c0,4.4-3.6,8-8,8s-8-3.6-8-8
	C128,191.6,131.6,188,136,188z M376,189c-7.2,0-13-5.8-13-13s5.8-13,13-13s13,5.8,13,13S383.2,189,376,189z"/>
<path class="st1" d="M256.2,421.3h-13.4c-9.5,0-17.3,7.5-17.3,16.7v14.6c0,9.2,7.8,16.7,17.3,16.7h13.4c9.5,0,17.3-7.5,17.3-16.7
	V438C273.5,428.8,265.8,421.3,256.2,421.3z M263.7,452.6c0,4-3.3,7.2-7.4,7.2h-13.4c-4.1,0-7.4-3.2-7.4-7.2V438c0-4,3.3-7.2,7.4-7.2
	h13.4c4.1,0,7.4,3.2,7.4,7.2V452.6z"/>
<path class="st1" d="M219.2,421.3h-36.5c-0.5,0-0.9,0.4-0.9,0.9v7.8c0,0.5,0.4,0.9,0.9,0.9h13.5v37.5c0,0.5,0.4,0.9,0.9,0.9h7.8
	c0.5,0,0.9-0.4,0.9-0.9v-37.5h13.5c0.5,0,0.9-0.4,0.9-0.9v-7.8C220.1,421.7,219.7,421.3,219.2,421.3z"/>
<path class="st1" d="M313.6,421.3h-31.3c-0.5,0-1,0.4-1,0.9v46.2c0,0.5,0.4,0.9,1,0.9h8.2c0.5,0,1-0.4,1-0.9v-19.1h16
	c0.5,0,1-0.4,1-0.9v-7.9c0-0.5-0.4-0.9-1-0.9h-16V431h22.2c0.5,0,1-0.4,1-0.9v-7.8C314.5,421.7,314.1,421.3,313.6,421.3z"/>
<path class="st1" d="M414.7,421.4c-0.1-0.1-0.3-0.1-0.4-0.1l-6.8,0c-0.9,0-1.8,0.4-2.3,1.1l-11.8,15.3l-11.8-15.3
	c-0.6-0.7-1.4-1.1-2.3-1.1l-6.8,0c-0.2,0-0.3,0-0.4,0.1c-1.5,0.8-1.7,2.4-0.9,3.4l16.1,20.8l-15.8,20.5c-0.1,0.1-0.2,0.3-0.2,0.4
	c-0.3,1.6,0.8,2.8,2.2,2.8h6.4c0.9,0,1.8-0.4,2.3-1.1l11.2-14.6l11.2,14.6c0.6,0.7,1.4,1.1,2.3,1.1h6.8c0.2,0,0.3,0,0.4-0.1
	c1.4-0.8,1.7-2.4,0.9-3.4l-15.5-20.1l16.1-20.8C416.4,423.8,416.1,422.2,414.7,421.4z"/>
<path class="st1" d="M351.2,421.3h-13.4c-9.5,0-17.3,7.5-17.3,16.7v14.6c0,9.2,7.8,16.7,17.3,16.7h13.4c9.5,0,17.3-7.5,17.3-16.7
	V438C368.5,428.8,360.8,421.3,351.2,421.3z M358.7,452.6c0,4-3.3,7.2-7.4,7.2h-13.4c-4.1,0-7.4-3.2-7.4-7.2V438c0-4,3.3-7.2,7.4-7.2
	h13.4c4.1,0,7.4,3.2,7.4,7.2V452.6z"/>
<g>
	<path class="st1" d="M183.5,459.7h-21.4c-4.6,0-8.9-2.6-11-6.8l-1.9-3.7l-4.8,9.6c-0.2,0.3-0.3,0.6-0.5,0.9
		c4.1,6,10.8,9.6,18.1,9.6h21.4c0.5,0,0.9-0.4,0.9-0.9v-7.8C184.5,460.1,184,459.7,183.5,459.7z"/>
	<path class="st0" d="M169.4,421.3h-7.5c-8.3,0-16,4.7-19.7,12.2l-0.3,0.6l-5.5,11.1v0l-3.8,7.7c-2.1,4.2-6.3,6.8-11,6.8h-6.5
		c-5.2,0-9.5-4.2-9.5-9.5v-9.8c0-5.2,4.2-9.5,9.5-9.5h6.6c4.7,0,8.9,2.6,11,6.8l1.7,3.4l5.3-10.5c-4.1-5.8-10.7-9.3-18-9.3h-6.6
		c-10.6,0-19.1,8.6-19.1,19.1v9.8c0,10.6,8.6,19.1,19.1,19.1h6.5c8.4,0,15.9-4.6,19.6-12.1l6.8-13.7l2.8-5.6c2.1-4.2,6.3-6.8,11-6.8
		h7.5c0.5,0,0.9-0.4,0.9-0.9v-7.8C170.3,421.7,169.9,421.3,169.4,421.3z"/>
</g>
</svg>
